<?xml version="1.0" standalone="no"?>
<!DOCTYPE svg PUBLIC "-//W3C//DTD SVG 20010904//EN"
 "http://www.w3.org/TR/2001/REC-SVG-20010904/DTD/svg10.dtd">
<svg version="1.0" xmlns="http://www.w3.org/2000/svg"
 width="360.000000pt" height="360.000000pt" viewBox="0 0 360.000000 360.000000"
 preserveAspectRatio="xMidYMid meet">
<metadata>
Created by potrace 1.14, written by Peter Selinger 2001-2017
</metadata>
<g transform="translate(0.000000,360.000000) scale(0.100000,-0.100000)"
fill="#000000" stroke="none">
<path d="M1662 3549 c-213 -18 -404 -71 -609 -169 -665 -318 -1061 -1031 -983
-1768 64 -604 423 -1128 959 -1396 578 -290 1259 -236 1796 143 103 72 313
282 390 389 153 212 259 459 310 722 23 115 31 411 15 536 -65 518 -345 976
-770 1258 -253 168 -533 263 -846 286 -71 5 -136 9 -144 8 -8 0 -61 -5 -118
-9z m316 -140 c262 -28 513 -121 735 -271 130 -88 334 -294 420 -423 77 -116
165 -296 201 -410 191 -597 41 -1229 -394 -1665 -225 -224 -496 -371 -817
-442 -83 -18 -130 -22 -313 -22 -186 0 -229 3 -316 22 -152 33 -244 66 -399
142 -443 219 -760 630 -865 1125 -31 144 -38 402 -16 555 58 397 241 739 536
998 253 223 550 351 915 395 66 8 221 6 313 -4z"/>
<path d="M1185 2701 c-53 -23 -85 -87 -85 -171 0 -51 20 -87 56 -100 17 -7 24
-17 24 -36 0 -15 16 -61 36 -102 70 -146 248 -285 424 -332 315 -85 646 58
781 338 18 37 29 73 27 90 l-4 27 -12 -28 c-19 -46 -92 -148 -139 -194 -63
-64 -156 -120 -247 -150 -73 -24 -96 -27 -226 -27 -132 0 -152 2 -218 26 -109
39 -176 83 -274 178 -94 93 -142 174 -154 262 -5 38 -3 49 15 67 11 11 30 21
41 21 29 0 60 -35 60 -67 1 -74 39 -56 48 22 6 53 -17 121 -51 153 -27 25 -73
35 -102 23z"/>
<path d="M2375 2701 c-66 -27 -108 -161 -72 -230 18 -35 31 -28 39 20 13 72
49 96 97 63 21 -15 23 -22 18 -71 -5 -46 -3 -54 9 -49 9 3 17 6 20 6 2 0 10
13 19 30 37 71 4 194 -59 224 -38 18 -42 18 -71 7z"/>
<path d="M2391 2074 c-36 -8 -103 -33 -150 -55 -68 -33 -102 -58 -161 -118
-112 -113 -158 -210 -204 -430 -13 -62 -26 -114 -28 -116 -1 -2 -105 -6 -230
-9 -125 -3 -278 -13 -340 -21 -62 -8 -129 -15 -148 -15 -74 0 -8 -19 140 -40
85 -12 161 -27 168 -32 6 -6 12 -19 12 -29 0 -16 -8 -19 -47 -20 -27 0 -70 -4
-98 -8 -46 -6 -48 -7 -20 -14 27 -6 160 -26 178 -27 4 0 7 -8 7 -19 0 -21 -21
-23 -370 -42 -107 -5 -198 -13 -203 -18 -8 -8 547 -31 756 -31 130 0 137 -1
137 -20 0 -11 -11 -84 -25 -162 -14 -78 -25 -148 -25 -155 0 -10 47 -13 213
-13 l213 0 29 173 30 172 113 5 c113 5 114 5 142 37 37 42 64 131 58 194 -8
75 -14 79 -139 79 -127 0 -119 -11 -94 132 37 216 112 290 305 302 117 8 144
23 148 85 4 51 -23 159 -46 184 -34 38 -68 47 -164 46 -51 -1 -122 -7 -157
-15z"/>
</g>
</svg>
